<mxfile host="app.diagrams.net" agent="Mozilla/5.0 (Windows NT 10.0; Win64; x64; rv:136.0) Gecko/20100101 Firefox/136.0" version="26.1.3">
  <diagram name="Page-1" id="lRHZFAwA4tZSMQhSx_LC">
    <mxGraphModel dx="1900" dy="1755" grid="1" gridSize="10" guides="1" tooltips="1" connect="1" arrows="1" fold="1" page="1" pageScale="1" pageWidth="850" pageHeight="1100" math="0" shadow="0">
      <root>
        <mxCell id="0" />
        <mxCell id="1" parent="0" />
        <mxCell id="kYcVlotOvuIv47Q7m2HT-78" value="&lt;div&gt;Termék&lt;/div&gt;&lt;div&gt;&lt;br&gt;&lt;/div&gt;" style="rounded=0;whiteSpace=wrap;html=1;" vertex="1" parent="1">
          <mxGeometry x="110" y="230" width="120" height="60" as="geometry" />
        </mxCell>
        <mxCell id="kYcVlotOvuIv47Q7m2HT-79" value="T-GY" style="rhombus;whiteSpace=wrap;html=1;" vertex="1" parent="1">
          <mxGeometry x="360" y="220" width="80" height="80" as="geometry" />
        </mxCell>
        <mxCell id="kYcVlotOvuIv47Q7m2HT-80" value="" style="endArrow=classic;html=1;rounded=0;entryX=1;entryY=0.5;entryDx=0;entryDy=0;exitX=0;exitY=0.5;exitDx=0;exitDy=0;" edge="1" parent="1" source="kYcVlotOvuIv47Q7m2HT-79" target="kYcVlotOvuIv47Q7m2HT-78">
          <mxGeometry width="50" height="50" relative="1" as="geometry">
            <mxPoint x="410" y="380" as="sourcePoint" />
            <mxPoint x="460" y="330" as="targetPoint" />
          </mxGeometry>
        </mxCell>
        <mxCell id="kYcVlotOvuIv47Q7m2HT-81" value="Gyártó" style="rounded=0;whiteSpace=wrap;html=1;" vertex="1" parent="1">
          <mxGeometry x="560" y="230" width="120" height="60" as="geometry" />
        </mxCell>
        <mxCell id="kYcVlotOvuIv47Q7m2HT-82" value="" style="endArrow=classic;html=1;rounded=0;exitX=0;exitY=0.5;exitDx=0;exitDy=0;" edge="1" parent="1" source="kYcVlotOvuIv47Q7m2HT-79">
          <mxGeometry width="50" height="50" relative="1" as="geometry">
            <mxPoint x="410" y="380" as="sourcePoint" />
            <mxPoint x="240" y="260" as="targetPoint" />
          </mxGeometry>
        </mxCell>
        <mxCell id="kYcVlotOvuIv47Q7m2HT-83" value="" style="endArrow=classic;html=1;rounded=0;entryX=0;entryY=0.5;entryDx=0;entryDy=0;exitX=1;exitY=0.5;exitDx=0;exitDy=0;" edge="1" parent="1" source="kYcVlotOvuIv47Q7m2HT-79" target="kYcVlotOvuIv47Q7m2HT-81">
          <mxGeometry width="50" height="50" relative="1" as="geometry">
            <mxPoint x="410" y="380" as="sourcePoint" />
            <mxPoint x="460" y="330" as="targetPoint" />
          </mxGeometry>
        </mxCell>
        <mxCell id="kYcVlotOvuIv47Q7m2HT-84" value="Név " style="ellipse;whiteSpace=wrap;html=1;" vertex="1" parent="1">
          <mxGeometry x="90" y="360" width="70" height="30" as="geometry" />
        </mxCell>
        <mxCell id="kYcVlotOvuIv47Q7m2HT-85" value="&lt;u&gt;Tkód&lt;/u&gt;" style="ellipse;whiteSpace=wrap;html=1;" vertex="1" parent="1">
          <mxGeometry x="-5" y="360" width="70" height="30" as="geometry" />
        </mxCell>
        <mxCell id="kYcVlotOvuIv47Q7m2HT-86" value="ear" style="ellipse;whiteSpace=wrap;html=1;" vertex="1" parent="1">
          <mxGeometry x="185" y="360" width="70" height="30" as="geometry" />
        </mxCell>
        <mxCell id="kYcVlotOvuIv47Q7m2HT-87" value="" style="endArrow=none;html=1;rounded=0;exitX=0.5;exitY=0;exitDx=0;exitDy=0;entryX=0.5;entryY=1;entryDx=0;entryDy=0;" edge="1" parent="1" source="kYcVlotOvuIv47Q7m2HT-86" target="kYcVlotOvuIv47Q7m2HT-78">
          <mxGeometry width="50" height="50" relative="1" as="geometry">
            <mxPoint x="410" y="380" as="sourcePoint" />
            <mxPoint x="460" y="330" as="targetPoint" />
          </mxGeometry>
        </mxCell>
        <mxCell id="kYcVlotOvuIv47Q7m2HT-88" value="" style="endArrow=none;html=1;rounded=0;exitX=0.5;exitY=0;exitDx=0;exitDy=0;entryX=0.5;entryY=1;entryDx=0;entryDy=0;" edge="1" parent="1" source="kYcVlotOvuIv47Q7m2HT-84" target="kYcVlotOvuIv47Q7m2HT-78">
          <mxGeometry width="50" height="50" relative="1" as="geometry">
            <mxPoint x="410" y="380" as="sourcePoint" />
            <mxPoint x="460" y="330" as="targetPoint" />
          </mxGeometry>
        </mxCell>
        <mxCell id="kYcVlotOvuIv47Q7m2HT-89" value="" style="endArrow=none;html=1;rounded=0;exitX=0.5;exitY=0;exitDx=0;exitDy=0;entryX=0.5;entryY=1;entryDx=0;entryDy=0;" edge="1" parent="1" source="kYcVlotOvuIv47Q7m2HT-85" target="kYcVlotOvuIv47Q7m2HT-78">
          <mxGeometry width="50" height="50" relative="1" as="geometry">
            <mxPoint x="410" y="380" as="sourcePoint" />
            <mxPoint x="460" y="330" as="targetPoint" />
          </mxGeometry>
        </mxCell>
        <mxCell id="kYcVlotOvuIv47Q7m2HT-90" value="Irszám" style="ellipse;whiteSpace=wrap;html=1;" vertex="1" parent="1">
          <mxGeometry x="490" y="440" width="80" height="30" as="geometry" />
        </mxCell>
        <mxCell id="kYcVlotOvuIv47Q7m2HT-91" value="Név" style="ellipse;whiteSpace=wrap;html=1;" vertex="1" parent="1">
          <mxGeometry x="680" y="350" width="82.5" height="30" as="geometry" />
        </mxCell>
        <mxCell id="kYcVlotOvuIv47Q7m2HT-92" value="Postacím" style="ellipse;whiteSpace=wrap;html=1;" vertex="1" parent="1">
          <mxGeometry x="580" y="350" width="80" height="30" as="geometry" />
        </mxCell>
        <mxCell id="kYcVlotOvuIv47Q7m2HT-93" value="" style="endArrow=none;html=1;rounded=0;entryX=0.5;entryY=1;entryDx=0;entryDy=0;exitX=0.5;exitY=0;exitDx=0;exitDy=0;" edge="1" parent="1" source="kYcVlotOvuIv47Q7m2HT-99" target="kYcVlotOvuIv47Q7m2HT-81">
          <mxGeometry width="50" height="50" relative="1" as="geometry">
            <mxPoint x="400" y="380" as="sourcePoint" />
            <mxPoint x="450" y="330" as="targetPoint" />
          </mxGeometry>
        </mxCell>
        <mxCell id="kYcVlotOvuIv47Q7m2HT-94" value="" style="endArrow=none;html=1;rounded=0;entryX=0.5;entryY=1;entryDx=0;entryDy=0;exitX=0.5;exitY=0;exitDx=0;exitDy=0;" edge="1" parent="1" source="kYcVlotOvuIv47Q7m2HT-91" target="kYcVlotOvuIv47Q7m2HT-81">
          <mxGeometry width="50" height="50" relative="1" as="geometry">
            <mxPoint x="400" y="380" as="sourcePoint" />
            <mxPoint x="450" y="330" as="targetPoint" />
          </mxGeometry>
        </mxCell>
        <mxCell id="kYcVlotOvuIv47Q7m2HT-95" value="" style="endArrow=none;html=1;rounded=0;entryX=0.5;entryY=1;entryDx=0;entryDy=0;exitX=0.5;exitY=0;exitDx=0;exitDy=0;" edge="1" parent="1" source="kYcVlotOvuIv47Q7m2HT-92" target="kYcVlotOvuIv47Q7m2HT-81">
          <mxGeometry width="50" height="50" relative="1" as="geometry">
            <mxPoint x="400" y="380" as="sourcePoint" />
            <mxPoint x="450" y="330" as="targetPoint" />
          </mxGeometry>
        </mxCell>
        <mxCell id="kYcVlotOvuIv47Q7m2HT-96" value="Telephely" style="ellipse;whiteSpace=wrap;html=1;" vertex="1" parent="1">
          <mxGeometry x="730" y="245" width="82.5" height="30" as="geometry" />
        </mxCell>
        <mxCell id="kYcVlotOvuIv47Q7m2HT-97" value="" style="endArrow=none;html=1;rounded=0;entryX=0;entryY=0.5;entryDx=0;entryDy=0;exitX=1;exitY=0.5;exitDx=0;exitDy=0;" edge="1" parent="1" source="kYcVlotOvuIv47Q7m2HT-81" target="kYcVlotOvuIv47Q7m2HT-96">
          <mxGeometry width="50" height="50" relative="1" as="geometry">
            <mxPoint x="400" y="380" as="sourcePoint" />
            <mxPoint x="450" y="330" as="targetPoint" />
          </mxGeometry>
        </mxCell>
        <mxCell id="kYcVlotOvuIv47Q7m2HT-99" value="&lt;u&gt;Adószám&lt;span style=&quot;white-space: pre;&quot;&gt;&#x9;&lt;/span&gt;&lt;/u&gt;" style="ellipse;whiteSpace=wrap;html=1;" vertex="1" parent="1">
          <mxGeometry x="480" y="350" width="80" height="30" as="geometry" />
        </mxCell>
        <mxCell id="kYcVlotOvuIv47Q7m2HT-100" value="Város" style="ellipse;whiteSpace=wrap;html=1;" vertex="1" parent="1">
          <mxGeometry x="580" y="440" width="80" height="30" as="geometry" />
        </mxCell>
        <mxCell id="kYcVlotOvuIv47Q7m2HT-101" value="Házszám" style="ellipse;whiteSpace=wrap;html=1;" vertex="1" parent="1">
          <mxGeometry x="680" y="440" width="80" height="30" as="geometry" />
        </mxCell>
        <mxCell id="kYcVlotOvuIv47Q7m2HT-102" value="" style="endArrow=none;html=1;rounded=0;entryX=0.5;entryY=1;entryDx=0;entryDy=0;exitX=0.5;exitY=0;exitDx=0;exitDy=0;" edge="1" parent="1" source="kYcVlotOvuIv47Q7m2HT-100" target="kYcVlotOvuIv47Q7m2HT-92">
          <mxGeometry width="50" height="50" relative="1" as="geometry">
            <mxPoint x="550" y="450" as="sourcePoint" />
            <mxPoint x="600" y="400" as="targetPoint" />
          </mxGeometry>
        </mxCell>
        <mxCell id="kYcVlotOvuIv47Q7m2HT-103" value="" style="endArrow=none;html=1;rounded=0;entryX=0.5;entryY=1;entryDx=0;entryDy=0;exitX=0.5;exitY=0;exitDx=0;exitDy=0;" edge="1" parent="1" source="kYcVlotOvuIv47Q7m2HT-90" target="kYcVlotOvuIv47Q7m2HT-92">
          <mxGeometry width="50" height="50" relative="1" as="geometry">
            <mxPoint x="400" y="380" as="sourcePoint" />
            <mxPoint x="450" y="330" as="targetPoint" />
          </mxGeometry>
        </mxCell>
        <mxCell id="kYcVlotOvuIv47Q7m2HT-104" value="" style="endArrow=none;html=1;rounded=0;entryX=0.5;entryY=1;entryDx=0;entryDy=0;exitX=0.5;exitY=0;exitDx=0;exitDy=0;" edge="1" parent="1" source="kYcVlotOvuIv47Q7m2HT-101" target="kYcVlotOvuIv47Q7m2HT-92">
          <mxGeometry width="50" height="50" relative="1" as="geometry">
            <mxPoint x="400" y="380" as="sourcePoint" />
            <mxPoint x="450" y="330" as="targetPoint" />
          </mxGeometry>
        </mxCell>
        <mxCell id="kYcVlotOvuIv47Q7m2HT-105" style="edgeStyle=orthogonalEdgeStyle;rounded=0;orthogonalLoop=1;jettySize=auto;html=1;exitX=0.5;exitY=1;exitDx=0;exitDy=0;entryX=0.5;entryY=0;entryDx=0;entryDy=0;" edge="1" parent="1" source="kYcVlotOvuIv47Q7m2HT-109" target="kYcVlotOvuIv47Q7m2HT-78">
          <mxGeometry relative="1" as="geometry" />
        </mxCell>
        <mxCell id="kYcVlotOvuIv47Q7m2HT-106" style="edgeStyle=orthogonalEdgeStyle;rounded=0;orthogonalLoop=1;jettySize=auto;html=1;exitX=0.5;exitY=1;exitDx=0;exitDy=0;" edge="1" parent="1" source="kYcVlotOvuIv47Q7m2HT-109">
          <mxGeometry relative="1" as="geometry">
            <mxPoint x="170" y="220" as="targetPoint" />
          </mxGeometry>
        </mxCell>
        <mxCell id="kYcVlotOvuIv47Q7m2HT-107" style="edgeStyle=orthogonalEdgeStyle;rounded=0;orthogonalLoop=1;jettySize=auto;html=1;exitX=0.5;exitY=0;exitDx=0;exitDy=0;entryX=0.5;entryY=1;entryDx=0;entryDy=0;" edge="1" parent="1" source="kYcVlotOvuIv47Q7m2HT-109" target="kYcVlotOvuIv47Q7m2HT-110">
          <mxGeometry relative="1" as="geometry" />
        </mxCell>
        <mxCell id="kYcVlotOvuIv47Q7m2HT-108" style="edgeStyle=orthogonalEdgeStyle;rounded=0;orthogonalLoop=1;jettySize=auto;html=1;exitX=0.5;exitY=0;exitDx=0;exitDy=0;" edge="1" parent="1" source="kYcVlotOvuIv47Q7m2HT-109">
          <mxGeometry relative="1" as="geometry">
            <mxPoint x="170" y="60" as="targetPoint" />
          </mxGeometry>
        </mxCell>
        <mxCell id="kYcVlotOvuIv47Q7m2HT-109" value="T-A" style="rhombus;whiteSpace=wrap;html=1;" vertex="1" parent="1">
          <mxGeometry x="130" y="100" width="80" height="80" as="geometry" />
        </mxCell>
        <mxCell id="kYcVlotOvuIv47Q7m2HT-110" value="Alkatrész" style="rounded=0;whiteSpace=wrap;html=1;" vertex="1" parent="1">
          <mxGeometry x="110" y="-10" width="120" height="60" as="geometry" />
        </mxCell>
        <mxCell id="kYcVlotOvuIv47Q7m2HT-111" value="Név" style="ellipse;whiteSpace=wrap;html=1;" vertex="1" parent="1">
          <mxGeometry x="270" y="5" width="70" height="30" as="geometry" />
        </mxCell>
        <mxCell id="kYcVlotOvuIv47Q7m2HT-112" value="&lt;u&gt;akód&lt;/u&gt;" style="ellipse;whiteSpace=wrap;html=1;" vertex="1" parent="1">
          <mxGeometry y="2.5" width="70" height="35" as="geometry" />
        </mxCell>
        <mxCell id="kYcVlotOvuIv47Q7m2HT-113" value="" style="endArrow=none;html=1;rounded=0;entryX=1;entryY=0.5;entryDx=0;entryDy=0;exitX=0;exitY=0.5;exitDx=0;exitDy=0;" edge="1" parent="1" source="kYcVlotOvuIv47Q7m2HT-110" target="kYcVlotOvuIv47Q7m2HT-112">
          <mxGeometry width="50" height="50" relative="1" as="geometry">
            <mxPoint x="340" y="230" as="sourcePoint" />
            <mxPoint x="390" y="180" as="targetPoint" />
          </mxGeometry>
        </mxCell>
        <mxCell id="kYcVlotOvuIv47Q7m2HT-114" value="" style="endArrow=none;html=1;rounded=0;entryX=0;entryY=0.5;entryDx=0;entryDy=0;exitX=1;exitY=0.5;exitDx=0;exitDy=0;" edge="1" parent="1" source="kYcVlotOvuIv47Q7m2HT-110" target="kYcVlotOvuIv47Q7m2HT-111">
          <mxGeometry width="50" height="50" relative="1" as="geometry">
            <mxPoint x="340" y="230" as="sourcePoint" />
            <mxPoint x="390" y="180" as="targetPoint" />
          </mxGeometry>
        </mxCell>
        <mxCell id="kYcVlotOvuIv47Q7m2HT-116" value="&lt;div&gt;db&lt;/div&gt;" style="ellipse;whiteSpace=wrap;html=1;" vertex="1" parent="1">
          <mxGeometry x="275" y="360" width="70" height="30" as="geometry" />
        </mxCell>
        <mxCell id="kYcVlotOvuIv47Q7m2HT-117" value="" style="endArrow=none;html=1;rounded=0;entryX=0.5;entryY=1;entryDx=0;entryDy=0;exitX=0.5;exitY=0;exitDx=0;exitDy=0;" edge="1" parent="1" source="kYcVlotOvuIv47Q7m2HT-116" target="kYcVlotOvuIv47Q7m2HT-78">
          <mxGeometry width="50" height="50" relative="1" as="geometry">
            <mxPoint y="170" as="sourcePoint" />
            <mxPoint x="50" y="120" as="targetPoint" />
          </mxGeometry>
        </mxCell>
      </root>
    </mxGraphModel>
  </diagram>
</mxfile>
